<?xml version="1.0" encoding="UTF-8"?>
<svg version="1.1" xmlns="http://www.w3.org/2000/svg" width="2160" height="2160">
<path d="M0 0 C2.76666818 0.27184706 5.53425549 0.53262627 8.30206299 0.79260254 C90.49456127 8.6030604 171.19505155 25.44925108 249.61016846 51.25646973 C250.36296082 51.50374817 251.11575317 51.75102661 251.89135742 52.00579834 C315.01310929 72.77354872 376.66498769 99.6891682 434.61016846 132.25646973 C435.6897583 132.86071777 436.76934814 133.46496582 437.88165283 134.08752441 C453.4275919 142.8074547 468.71338475 151.86395728 483.75177002 161.44055176 C486.59048666 163.24396604 489.43876662 165.03128735 492.28985596 166.81506348 C503.86015746 174.07739203 515.13961912 181.66921767 526.26690674 189.59240723 C528.52927022 191.19902001 530.80013724 192.79263616 533.07501221 194.38146973 C542.74074149 201.14038511 552.22793733 208.10963562 561.61016846 215.25646973 C562.18218994 215.69201172 562.75421143 216.12755371 563.34356689 216.57629395 C567.11316641 219.45158085 570.86518116 222.34920658 574.61016846 225.25646973 C575.17445557 225.69313965 575.73874268 226.12980957 576.32012939 226.57971191 C583.86980474 232.42828919 591.25585277 238.42795535 598.51641846 244.63146973 C601.40568166 247.09562937 604.34535304 249.49307972 607.29766846 251.88146973 C611.74920654 255.50481468 616.03399301 259.27610845 620.27813721 263.13928223 C622.36840735 265.03698142 624.48002961 266.90380387 626.61016846 268.75646973 C631.32561708 272.86954567 635.97787329 277.05005743 640.61016846 281.25646973 C641.11209717 281.71183105 641.61402588 282.16719238 642.13116455 282.63635254 C648.72969332 288.63501506 655.16503202 294.75048607 661.4307251 301.09631348 C664.76577174 304.45867372 668.21649731 307.60955887 671.81329346 310.68615723 C676.09448567 314.42754694 679.99031269 318.4922017 683.67266846 322.81896973 C687.12411518 326.83391796 690.84979696 330.53486495 694.61016846 334.25646973 C698.8263435 338.43378349 702.94577893 342.61332756 706.78204346 347.14709473 C708.77198322 349.44317907 710.83321074 351.66011774 712.9072876 353.88000488 C717.98299184 359.31304247 722.81692847 364.85306568 727.47344971 370.65490723 C729.56899339 373.20633702 731.7498 375.63973746 733.98516846 378.06896973 C738.04714826 382.52655104 741.76505817 387.18810383 745.45782471 391.9498291 C748.39045364 395.72558885 751.39581798 399.41882953 754.48516846 403.06896973 C812.81206551 472.61965454 860.45461297 554.25471716 900.61016846 645.25646973 C900.91009705 645.94635986 901.21002563 646.63625 901.51904297 647.3470459 C937.71244624 730.79889208 962.67910047 818.49981185 986.34588623 981.45880127 C986.59568474 984.10314634 986.85480389 986.74643724 987.11505127 989.38977051 C992.73226027 1047.78668501 992.61436014 1109.26667522 986.86663818 1167.64630127 C986.59479112 1170.41296945 986.33401191 1173.18055676 986.07403564 1175.94836426 C978.26357779 1258.14086254 961.4173871 1338.84135282 935.61016846 1417.25646973 C935.36289001 1418.00926208 935.11561157 1418.76205444 934.86083984 1419.53765869 C914.09308946 1482.65941056 887.17746999 1544.31128896 854.61016846 1602.25646973 C854.00592041 1603.33605957 853.40167236 1604.41564941 852.77911377 1605.5279541 C844.05918348 1621.07389317 835.0026809 1636.35968602 825.42608643 1651.39807129 C823.62267215 1654.23678793 821.83535083 1657.08506789 820.05157471 1659.93615723 C812.78924615 1671.50645873 805.19742051 1682.78592039 797.27423096 1693.91320801 C795.66761818 1696.17557149 794.07400202 1698.44643851 792.48516846 1700.72131348 C785.72625307 1710.38704276 778.75700256 1719.8742386 771.61016846 1729.25646973 C771.17462646 1729.82849121 770.73908447 1730.4005127 770.29034424 1730.98986816 C767.41505733 1734.75946768 764.5174316 1738.51148243 761.61016846 1742.25646973 C761.17349854 1742.82075684 760.73682861 1743.38504395 760.28692627 1743.96643066 C754.438349 1751.51610601 748.43868283 1758.90215404 742.23516846 1766.16271973 C739.77100882 1769.05198293 737.37355846 1771.99165431 734.98516846 1774.94396973 C731.36182351 1779.39550781 727.59052973 1783.68029428 723.72735596 1787.92443848 C721.82965677 1790.01470862 719.96283431 1792.12633088 718.11016846 1794.25646973 C713.99709251 1798.97191835 709.81658076 1803.62417456 705.61016846 1808.25646973 C705.15480713 1808.75839844 704.6994458 1809.26032715 704.23028564 1809.77746582 C698.23162313 1816.37599459 692.11615212 1822.81133329 685.77032471 1829.07702637 C682.40796447 1832.41207301 679.25707931 1835.86279858 676.18048096 1839.45959473 C672.43909124 1843.74078694 668.37443648 1847.63661396 664.04766846 1851.31896973 C660.03272022 1854.77041645 656.33177324 1858.49609823 652.61016846 1862.25646973 C648.43285469 1866.47264477 644.25331062 1870.5920802 639.71954346 1874.42834473 C637.42345911 1876.41828449 635.20652044 1878.479512 632.9866333 1880.55358887 C627.55359572 1885.6292931 622.0135725 1890.46322973 616.21173096 1895.11975098 C613.66030117 1897.21529466 611.22690072 1899.39610127 608.79766846 1901.63146973 C604.34008715 1905.69344953 599.67853436 1909.41135944 594.91680908 1913.10412598 C591.14104933 1916.03675491 587.44780865 1919.04211925 583.79766846 1922.13146973 C514.24698364 1980.45836678 432.61192102 2028.10091424 341.61016846 2068.25646973 C340.92027832 2068.55639832 340.23038818 2068.8563269 339.51959229 2069.16534424 C256.0677461 2105.3587475 168.36682634 2130.32540174 5.40783691 2153.9921875 C2.76349185 2154.24198601 0.12020094 2154.50110516 -2.52313232 2154.76135254 C-60.92004683 2160.37856154 -122.40003704 2160.26066141 -180.77966309 2154.51293945 C-183.54633126 2154.24109239 -186.31391857 2153.98031318 -189.08172607 2153.72033691 C-271.27422435 2145.90987906 -351.97471463 2129.06368837 -430.38983154 2103.25646973 C-431.1426239 2103.00919128 -431.89541626 2102.76191284 -432.67102051 2102.50714111 C-495.79277238 2081.73939073 -557.44465077 2054.82377126 -615.38983154 2022.25646973 C-616.46942139 2021.65222168 -617.54901123 2021.04797363 -618.66131592 2020.42541504 C-634.20725498 2011.70548475 -649.49304784 2002.64898217 -664.53143311 1993.0723877 C-667.37014975 1991.26897342 -670.2184297 1989.4816521 -673.06951904 1987.69787598 C-684.63982055 1980.43554742 -695.91928221 1972.84372178 -707.04656982 1964.92053223 C-709.3089333 1963.31391945 -711.57980033 1961.72030329 -713.85467529 1960.13146973 C-723.52040458 1953.37255434 -733.00760042 1946.40330383 -742.38983154 1939.25646973 C-742.96185303 1938.82092773 -743.53387451 1938.38538574 -744.12322998 1937.93664551 C-747.8928295 1935.0613586 -751.64484424 1932.16373287 -755.38983154 1929.25646973 C-755.95411865 1928.8197998 -756.51840576 1928.38312988 -757.09979248 1927.93322754 C-764.64946782 1922.08465026 -772.03551586 1916.0849841 -779.29608154 1909.88146973 C-782.18534475 1907.41731009 -785.12501612 1905.01985973 -788.07733154 1902.63146973 C-792.52886963 1899.00812478 -796.81365609 1895.236831 -801.05780029 1891.37365723 C-803.14807044 1889.47595804 -805.25969269 1887.60913558 -807.38983154 1885.75646973 C-812.10528016 1881.64339378 -816.75753638 1877.46288203 -821.38983154 1873.25646973 C-821.89176025 1872.8011084 -822.39368896 1872.34574707 -822.91082764 1871.87658691 C-829.50935641 1865.8779244 -835.9446951 1859.76245338 -842.21038818 1853.41662598 C-845.54543482 1850.05426574 -848.9961604 1846.90338058 -852.59295654 1843.82678223 C-856.87414875 1840.08539251 -860.76997578 1836.02073775 -864.45233154 1831.69396973 C-867.90377827 1827.67902149 -871.62946005 1823.97807451 -875.38983154 1820.25646973 C-879.60600658 1816.07915596 -883.72544202 1811.89961189 -887.56170654 1807.36584473 C-889.55164631 1805.06976038 -891.61287382 1802.85282171 -893.68695068 1800.63293457 C-898.76265492 1795.19989698 -903.59659155 1789.65987377 -908.25311279 1783.85803223 C-910.34865648 1781.30660244 -912.52946309 1778.87320199 -914.76483154 1776.44396973 C-918.82681134 1771.98638842 -922.54472125 1767.32483563 -926.23748779 1762.56311035 C-929.17011673 1758.7873506 -932.17548106 1755.09410992 -935.26483154 1751.44396973 C-993.5917286 1681.89328491 -1041.23427606 1600.25822229 -1081.38983154 1509.25646973 C-1081.83972443 1508.22163452 -1081.83972443 1508.22163452 -1082.29870605 1507.16589355 C-1118.49210932 1423.71404737 -1143.45876355 1336.01312761 -1167.12554932 1173.05413818 C-1167.37534782 1170.40979312 -1167.63446698 1167.76650221 -1167.89471436 1165.12316895 C-1173.51192335 1106.72625444 -1173.39402323 1045.24626423 -1167.64630127 986.86663818 C-1167.37445421 984.09997001 -1167.113675 981.3323827 -1166.85369873 978.5645752 C-1159.04324087 896.37207692 -1142.19705019 815.67158664 -1116.38983154 737.25646973 C-1116.1425531 736.50367737 -1115.89527466 735.75088501 -1115.64050293 734.97528076 C-1094.87275254 671.85352889 -1067.95713307 610.20165049 -1035.38983154 552.25646973 C-1034.7855835 551.17687988 -1034.18133545 550.09729004 -1033.55877686 548.98498535 C-1024.83884657 533.43904629 -1015.78234399 518.15325343 -1006.20574951 503.11486816 C-1004.40233523 500.27615152 -1002.61501392 497.42787157 -1000.83123779 494.57678223 C-993.56890924 483.00648072 -985.9770836 471.72701906 -978.05389404 460.59973145 C-976.44728126 458.33736797 -974.85366511 456.06650094 -973.26483154 453.79162598 C-966.50591616 444.12589669 -959.53666565 434.63870085 -952.38983154 425.25646973 C-951.95428955 424.68444824 -951.51874756 424.11242676 -951.07000732 423.52307129 C-948.19472042 419.75347177 -945.29709469 416.00145703 -942.38983154 412.25646973 C-941.95316162 411.69218262 -941.5164917 411.12789551 -941.06658936 410.54650879 C-935.21801208 402.99683345 -929.21834592 395.61078541 -923.01483154 388.35021973 C-920.5506719 385.46095652 -918.15322155 382.52128515 -915.76483154 379.56896973 C-912.14148659 375.11743164 -908.37019282 370.83264518 -904.50701904 366.58850098 C-902.60931985 364.49823083 -900.7424974 362.38660858 -898.88983154 360.25646973 C-894.7767556 355.54102111 -890.59624384 350.88876489 -886.38983154 346.25646973 C-885.70678955 345.50357666 -885.70678955 345.50357666 -885.00994873 344.73547363 C-879.01128621 338.13694486 -872.8958152 331.70160616 -866.54998779 325.43591309 C-863.18762755 322.10086645 -860.0367424 318.65014087 -856.96014404 315.05334473 C-853.21875433 310.77215252 -849.15409957 306.87632549 -844.82733154 303.19396973 C-840.81238331 299.742523 -837.11143632 296.01684122 -833.38983154 292.25646973 C-829.21251778 288.04029469 -825.03297371 283.92085925 -820.49920654 280.08459473 C-818.2031222 278.09465496 -815.98618353 276.03342745 -813.76629639 273.95935059 C-808.3332588 268.88364635 -802.79323559 264.04970972 -796.99139404 259.39318848 C-794.43996425 257.29764479 -792.00656381 255.11683818 -789.57733154 252.88146973 C-785.11975023 248.81948993 -780.45819744 245.10158002 -775.69647217 241.40881348 C-771.92071242 238.47618454 -768.22747174 235.47082021 -764.57733154 232.38146973 C-695.02664673 174.05457267 -613.39158411 126.41202521 -522.38983154 86.25646973 C-521.35499634 85.80657684 -521.35499634 85.80657684 -520.29925537 85.34759521 C-436.84740919 49.15419195 -349.14648942 24.18753772 -186.1875 0.52075195 C-183.54315493 0.27095345 -180.89986403 0.01183429 -178.25653076 -0.24841309 C-119.85961626 -5.86562208 -58.37962605 -5.74772196 0 0 Z " fill="#6C87D4" transform="translate(1170.3898315429688,2.7435302734375)"/>
<path d="M0 0 C1.32451172 -0.04253906 1.32451172 -0.04253906 2.67578125 -0.0859375 C10.44136958 1.10257018 15.74214321 5.84901706 21.08440387 11.27626055 C21.788113 11.97498156 22.49182212 12.67370257 23.21685576 13.39359695 C25.57683221 15.74172246 27.92226437 18.10385442 30.26804924 20.46615124 C31.97963927 22.17508615 33.69210711 23.88314227 35.4053731 25.59039697 C39.14227547 29.31823135 42.87286186 33.05222273 46.598078 36.79172405 C52.17482928 42.38977915 57.76312018 47.97620935 63.35372716 53.56042297 C72.88126992 63.07773793 82.39931772 72.60449724 91.91226387 82.13640022 C101.55375519 91.79702452 111.19960145 101.45326923 120.85081673 111.10417938 C121.4601762 111.71352457 122.06953568 112.32286976 122.69736059 112.95067995 C125.80445955 116.05766466 128.91163079 119.16457708 132.01882841 122.27146313 C154.5149423 144.76560264 177.00143671 167.26933774 199.48293686 189.77808189 C221.74995369 212.07201314 244.02132141 234.36158372 266.29846573 256.64539528 C266.99015903 257.33729897 267.68185233 258.02920267 268.39450604 258.74207314 C275.41712533 265.76681914 282.43983164 272.79147815 289.46259447 279.81608065 C304.46304858 294.82047489 319.46284028 309.82553126 334.4623127 324.83090687 C335.17749067 325.54636507 335.89266864 326.26182328 336.62951868 326.99896204 C371.4246855 361.80786358 406.2127211 396.62388954 441 431.44067383 C453.07285962 443.523759 465.14573614 455.60682729 477.21868896 467.68981934 C477.9674388 468.43919232 478.71618864 469.18856531 479.48762786 469.96064656 C514.28790544 504.78983665 549.09200988 539.61520146 583.89734533 574.43933706 C586.15664441 576.69985698 588.41594103 578.96037935 590.67523723 581.22090214 C623.97152482 614.53524428 657.26864267 647.8487565 690.56648825 681.16154142 C693.45224106 684.04859031 696.33799076 686.93564231 699.22374027 689.8226945 C702.09832264 692.69857446 704.97290588 695.57445354 707.84748924 698.4503325 C709.28031854 699.88380764 710.71314772 701.3172829 712.14597677 702.7507583 C719.96609485 710.57440283 727.78623117 718.39802913 735.60641171 726.22161124 C769.06706361 759.69684944 802.52514683 793.17465083 835.97884043 826.65684292 C838.71354589 829.39387462 841.44825408 832.13090361 844.18296504 834.86792982 C844.85636175 835.54189704 845.52975845 836.21586427 846.22356112 836.91025474 C856.17198992 846.86707612 866.12093024 856.82338614 876.07034802 866.77921927 C877.02910599 867.73859644 877.02910599 867.73859644 878.00723281 868.71735497 C884.34900527 875.06320478 890.69085311 881.40897927 897.03280295 887.75465181 C900.12608525 890.84975575 903.21934504 893.94488219 906.31258965 897.0400238 C907.2221816 897.95017289 907.2221816 897.95017289 908.15014914 898.87870883 C917.77680402 908.51136503 927.40174052 918.14573641 937.02595839 927.78082743 C946.47457915 937.24006306 955.9249309 946.69756628 965.37716056 956.15319571 C970.92818251 961.70632857 976.47779149 967.26086488 982.02538655 972.81742125 C986.12949545 976.92786234 990.23616667 981.03573636 994.34389047 985.14256514 C996.00571407 986.80485065 997.66667804 988.46799604 999.32672676 990.13205403 C1001.56310023 992.37359343 1003.80247561 994.61208831 1006.04269111 996.84978694 C1006.6953223 997.50539955 1007.3479535 998.16101216 1008.02036139 998.83649181 C1012.22579004 1003.07334523 1012.22579004 1003.07334523 1017.708924 1004.98776633 C1023.69988745 1004.85468353 1027.43796422 999.56243325 1031.34471607 995.57073879 C1032.311928 994.60779431 1033.28067511 993.64638979 1034.25081328 992.68639347 C1036.92380556 990.03242897 1039.57440383 987.35702326 1042.22200177 984.6777575 C1045.10193517 981.77112254 1048.00212873 978.88482566 1050.89985532 975.99594885 C1055.97960954 970.92610044 1061.04619163 965.84337804 1066.10446358 960.75209999 C1073.62646054 953.18115838 1081.1684164 945.63034025 1088.71472156 938.08363698 C1101.40943056 925.38717775 1114.08796642 912.67468406 1126.75765419 899.95326042 C1139.31144726 887.34839833 1151.87308727 874.75143737 1164.44508934 862.16473579 C1165.22644285 861.38246574 1166.00779635 860.60019568 1166.81282724 859.79422047 C1170.78105361 855.82144218 1174.74943717 851.84882095 1178.71789183 847.87627072 C1206.84541924 819.71935719 1234.9578126 791.54737941 1263.06030273 763.36547852 C1264.76041914 761.66056774 1266.46053604 759.95565747 1268.16065343 758.25074769 C1269.00300898 757.4060172 1269.84536452 756.56128671 1270.71324599 755.69095833 C1274.97474757 751.4174494 1279.23626536 747.14395664 1283.49780273 742.8704834 C1284.34280914 742.02310816 1285.18781555 741.17573293 1286.05842821 740.30267966 C1305.67614581 720.63016715 1325.29904554 700.96282721 1344.92358398 681.29711914 C1345.76397426 680.45495899 1346.60436453 679.61279885 1347.47022118 678.7451187 C1366.65682955 659.51817536 1385.84537289 640.29316538 1405.03721142 621.0714426 C1405.84385808 620.26353536 1406.65050474 619.45562812 1407.48159524 618.62323884 C1414.73801938 611.35549805 1421.99449586 604.08780955 1429.25135007 596.82049818 C1448.1294792 577.91513106 1467.0014832 559.00369809 1485.86273386 540.08149118 C1497.6954408 528.21080821 1509.53321226 516.34519125 1521.37501065 504.4835776 C1528.87197254 496.97366544 1536.36454829 489.45943551 1543.85105218 481.93909763 C1548.85244664 476.91590257 1553.85926203 471.89815463 1558.87049701 466.88477671 C1561.72550619 464.02821486 1564.57806104 461.16931532 1567.42394356 458.30365836 C1570.01616953 455.69349807 1572.61532429 453.09044686 1575.22002876 450.4927406 C1576.58970426 449.12319927 1577.95200017 447.74628953 1579.31392446 446.36903986 C1592.2316454 433.52828001 1592.2316454 433.52828001 1600.0078125 431.515625 C1600.93335938 431.55171875 1601.85890625 431.5878125 1602.8125 431.625 C1603.74320313 431.63015625 1604.67390625 431.6353125 1605.6328125 431.640625 C1613.31520403 433.48754266 1618.9312151 439.18064026 1624.34106445 444.64038086 C1625.05917801 445.35323746 1625.77729156 446.06609406 1626.51716614 446.80055237 C1628.86926513 449.13953592 1631.21032329 451.48921621 1633.55078125 453.83984375 C1635.19082084 455.47786064 1636.8313054 457.11543213 1638.47221375 458.75257874 C1641.90051767 462.17647113 1645.32336525 465.60570216 1648.74243164 469.03881836 C1653.12145588 473.4349605 1657.51384751 477.81746049 1661.91039753 482.19606686 C1665.29673183 485.57155499 1668.67588146 488.95416274 1672.05290794 492.33896065 C1673.66981109 493.95786207 1675.28893756 495.57454612 1676.91033363 497.18894768 C1679.17453714 499.44552041 1681.42888141 501.7115082 1683.6809082 503.98022461 C1684.34950867 504.64275238 1685.01810913 505.30528015 1685.70697021 505.98788452 C1690.28673543 510.63062399 1693.41315434 514.5400948 1694.0625 521.25 C1693.63751148 529.01703164 1690.99062921 533.29629222 1685.78077561 538.90206724 C1685.04970149 539.68912706 1685.04970149 539.68912706 1684.30385821 540.49208706 C1678.99214256 546.17755062 1673.51224142 551.69411703 1668.00759029 557.1919241 C1666.86688927 558.33488815 1665.72640373 559.47806728 1664.58611128 560.62143895 C1661.47291323 563.7417981 1658.3566748 566.85910474 1655.23989116 569.97588184 C1651.84168693 573.37516354 1648.44634687 576.77730423 1645.05061966 580.17906004 C1638.32495092 586.91575692 1631.59661149 593.64978051 1624.86742511 600.38296347 C1616.80389121 608.45152339 1608.74321158 616.52293257 1600.68252924 624.59434108 C1580.28539573 645.01826084 1559.88241091 665.43633165 1539.47861561 685.85359582 C1533.95285966 691.38302425 1528.42726886 696.91261769 1522.90171552 702.44224858 C1489.08729934 736.2815531 1455.27147295 770.11944755 1421.45072782 803.95242666 C1418.97782568 806.42622616 1416.50493221 808.90003433 1414.03203923 811.37384299 C1413.54151176 811.86455207 1413.05098429 812.35526115 1412.54559236 812.8608402 C1407.57611567 817.83215949 1402.60665063 822.80349041 1397.63719745 827.7748332 C1396.64083157 828.77157713 1395.64446482 829.76832017 1394.64809718 830.76506235 C1362.62657529 862.79862246 1330.61390247 894.84100455 1298.60720167 926.88937297 C1275.59523202 949.93129162 1252.58210447 972.9720468 1229.56000614 996.00384617 C1229.08661579 996.47743707 1228.61322545 996.95102797 1228.12548994 997.43897012 C1218.20048747 1007.36812763 1208.27489408 1017.2966942 1198.34860324 1027.22456372 C1193.70053582 1031.87337159 1189.05255353 1036.52226456 1184.40461922 1041.17120552 C1183.03250467 1042.54360599 1183.03250467 1042.54360599 1181.63267063 1043.94373173 C1166.90100352 1058.67891489 1152.17774964 1073.42247694 1137.45752821 1088.16909316 C1122.67335158 1102.97938019 1107.88002763 1117.78048013 1093.07729702 1132.57222306 C1084.27974917 1141.36378399 1075.48924981 1150.16225873 1066.70862677 1158.97072415 C1060.8458688 1164.85069795 1054.97410782 1170.72157661 1049.09489038 1176.58509285 C1045.74353302 1179.92801718 1042.39627832 1183.27478658 1039.05991416 1186.63268053 C1036.02382866 1189.68820064 1032.97643372 1192.73194762 1029.91966709 1195.76677411 C1028.82363122 1196.85895073 1027.7317543 1197.95532138 1026.64464487 1199.05638335 C1012.87784692 1212.98833504 1012.87784692 1212.98833504 1003.93185183 1213.54712486 C988.04352211 1212.8488449 973.4337223 1192.26230887 962.92216206 1181.7355032 C961.10508386 1179.91946881 959.28778675 1178.10365345 957.47029123 1176.28803673 C953.51398981 1172.33511738 949.55953907 1168.38035425 945.60630522 1164.42436718 C939.6881818 1158.50214076 933.76716452 1152.58281376 927.84559185 1146.66403646 C917.75228839 1136.57532849 907.6613556 1126.48425239 897.57171631 1116.39188004 C887.34862526 1106.16603665 877.12444806 1095.94128106 866.89894676 1085.71784782 C866.25282591 1085.07185615 865.60670506 1084.42586447 864.9410048 1083.76029729 C862.30940777 1081.12923354 859.67780303 1078.49817751 857.04618851 1075.86713128 C832.54078287 1051.3670138 808.03784167 1026.86443301 783.53647804 1002.36027336 C782.81060143 1001.63431395 782.08472481 1000.90835454 781.33685193 1000.16039636 C780.24629635 999.06971638 780.24629635 999.06971638 779.13370934 997.95700246 C756.98952788 975.81029843 734.84441151 953.66452977 712.69836998 931.51968575 C711.21571899 930.03711224 709.73306817 928.55453857 708.2504175 927.07196474 C702.29236992 921.11422762 696.33431824 915.15649461 690.37626058 909.19876758 C673.72093605 892.54436008 657.06578474 875.88977936 640.41076946 859.2350626 C639.65232919 858.47663597 638.89388892 857.71820935 638.11246561 856.9368001 C613.94374304 832.76848683 589.77578874 808.59940547 565.60835743 784.42980099 C564.82445389 783.64582719 564.04055034 782.8618534 563.23289215 782.05412283 C550.50256154 769.32264725 537.77226817 756.59113443 525.04197796 743.85961847 C474.54615833 693.35894197 424.04779776 642.86080774 373.54711914 592.36499023 C360.81966822 579.63876048 348.09222236 566.91252567 335.3648119 554.18625546 C334.18933441 553.01088364 334.18933441 553.01088364 332.99010991 551.81176694 C308.84405175 527.66786459 284.69861419 503.52334176 260.55385113 479.37814426 C259.41708553 478.24135829 259.41708553 478.24135829 258.25735497 477.08160694 C241.62242104 460.44636055 224.98764769 443.8109536 208.35301917 427.17540181 C202.40122828 421.22328177 196.44942935 415.27116976 190.49762813 409.31906005 C189.01695146 407.838306 187.53627546 406.35755127 186.05560014 404.87679587 C163.91472677 382.73472838 141.77274762 360.59376719 119.6300148 338.45355922 C118.90388979 337.72751701 118.17776479 337.00147481 117.429636 336.25343132 C116.70484822 335.52872623 115.98006045 334.80402113 115.23330941 334.05735528 C90.80253885 309.62934127 66.373652 285.19944489 41.94689897 260.76741355 C39.32522327 258.14518547 36.70353972 255.52296523 34.08185005 252.90075111 C33.11672629 251.93543204 33.11672629 251.93543204 32.13210507 250.95061157 C21.93425655 240.75078882 11.73473323 230.55264252 1.53451728 220.35518734 C-8.4893598 210.33395222 -18.51145493 200.31093794 -28.5316424 190.28601358 C-34.40972888 184.4052545 -40.28918112 178.52586886 -46.17064751 172.64849006 C-50.53189586 168.28996817 -54.89054453 163.92885542 -59.24816987 159.56671143 C-61.00418061 157.80969022 -62.76103609 156.05351279 -64.51882086 154.29826638 C-66.90081467 151.91946947 -69.2797136 149.53761921 -71.65786618 147.15498298 C-72.33793117 146.47730874 -73.01799615 145.7996345 -73.71866917 145.10142467 C-77.58754868 141.21766743 -81.26953163 137.22309563 -84.84293406 133.06534644 C-86.53325689 131.12107766 -88.3113404 129.30492293 -90.171875 127.5234375 C-90.81253906 126.89953125 -91.45320312 126.275625 -92.11328125 125.6328125 C-93.42475292 124.36602023 -94.7399335 123.10305764 -96.05859375 121.84375 C-101.15633084 116.85975552 -104.72526086 112.43713708 -104.8125 105 C-104.8434375 104.12601563 -104.874375 103.25203125 -104.90625 102.3515625 C-103.25153174 94.05619859 -96.42911563 88.05994321 -90.65429688 82.32861328 C-89.79353043 81.46258987 -88.93276398 80.59656647 -88.0459137 79.70429993 C-85.70233451 77.34984046 -83.35228417 75.00225268 -80.99849892 72.6580224 C-78.52862228 70.19578646 -76.06612465 67.72618763 -73.60241699 65.25778198 C-69.46867318 61.11859647 -65.32868023 56.98574073 -61.18505859 52.85644531 C-56.3993048 48.0870474 -51.62449761 43.30689466 -46.85516882 38.52107632 C-42.75014224 34.40242823 -38.63928909 30.28966435 -34.52352381 26.18174732 C-32.06948432 23.73237652 -29.61749718 21.28104352 -27.17076111 18.82437515 C-24.44596577 16.08929021 -21.70899871 13.36659153 -18.97070312 10.64501953 C-18.164319 9.83256271 -17.35793488 9.0201059 -16.52711487 8.18302917 C-15.77860764 7.44298141 -15.0301004 6.70293365 -14.25891113 5.94046021 C-13.61369759 5.29637774 -12.96848404 4.65229527 -12.30371857 3.98869514 C-8.52514433 0.92651654 -4.78654163 0.06926978 0 0 Z " fill="#000000" transform="translate(291.3125,601.625)"/>
</svg>
